<svg enable-background="new 0 0 111.82 122.88" viewBox="0 0 111.82 122.88" xmlns="http://www.w3.org/2000/svg"><path clip-rule="evenodd" d="m55.72 0c20.87 13.2 39.67 19.47 55.85 17.99 2.84 57.11-18.25 90.84-55.63 104.89-36.1-13.16-57.44-45.46-55.86-105.77 18.99.99 37.61-3.1 55.64-17.11zm-35.58 44.81h7.11l4.95 15.83 4.87-15.83h6.9l-8.16 21.99h-7.36zm25.53 0h11.29c2.46 0 4.3.58 5.52 1.76 1.22 1.17 1.84 2.84 1.84 4.99 0 2.22-.67 3.96-2 5.21-1.34 1.25-3.37 1.87-6.11 1.87h-3.72v8.16h-6.82zm6.82 9.37h1.66c1.31 0 2.23-.23 2.76-.68.53-.46.79-1.03.79-1.75 0-.69-.23-1.28-.69-1.76s-1.32-.72-2.59-.72h-1.94v4.91zm14.92-9.37h6.35l8.28 12.17v-12.17h6.41v21.99h-6.41l-8.24-12.08v12.08h-6.39zm-11.69-37.77c18.47 11.69 35.13 17.22 49.44 15.93 2.51 50.55-16.18 80.41-49.26 92.87-31.93-11.65-50.84-40.22-49.44-93.61 16.81.88 33.29-2.76 49.26-15.15z" fill-rule="evenodd"/></svg>