<svg enable-background="new 0 0 512 512" viewBox="0 0 512 512" xmlns="http://www.w3.org/2000/svg">
  <path d="m376.749 304.47c-13.531 0-24.5-10.969-24.5-24.5v-142.665c0-48.084-39.119-87.203-87.203-87.203-48.083 0-87.203 39.119-87.203 87.203 0 13.531-10.969 24.5-24.5 24.5s-24.5-10.969-24.5-24.5c0-75.103 61.1-136.203 136.203-136.203s136.203 61.101 136.203 136.203v142.665c0 13.531-10.969 24.5-24.5 24.5z" fill="#b1b4b5" />
  <path d="m414.115 507.459h-298.138c-27.835 0-50.4-22.565-50.4-50.4v-172.368c0-27.835 22.565-50.4 50.4-50.4h298.138c27.835 0 50.4 22.565 50.4 50.4v172.367c0 27.836-22.565 50.401-50.4 50.401z" fill="red" />
  <path d="m109.311 466.841h-2.525c-7.953 0-14.4-6.447-14.4-14.4v-163.132c0-7.953 6.447-14.4 14.4-14.4h2.525c7.953 0 14.4 6.447 14.4 14.4v163.132c0 7.953-6.447 14.4-14.4 14.4z" fill="pink" />
</svg>